<svg width="28" height="32" viewBox="0 0 28 32" fill="none" xmlns="http://www.w3.org/2000/svg">
<g id="Artboard 89">
<path id="Shape" fill-rule="evenodd" clip-rule="evenodd" d="M18.604 1.5138C22.1311 3.81498 22.8276 8.09733 22.8758 12.002C22.8962 13.6528 22.8806 15.2964 22.8651 16.9378C22.8348 20.1312 22.8047 23.3164 23.0393 26.5303C23.0229 26.3009 19.304 25.7491 18.8793 25.7303C17.9864 25.6917 17.0629 25.7755 16.1498 25.8584C15.6998 25.8993 15.2523 25.9399 14.8123 25.9656C14.0448 26.0136 13.2602 26.0328 12.4713 26.0521C10.9588 26.0892 9.43057 26.1267 7.97699 26.3679C7.69512 26.4148 7.41697 26.4623 7.14109 26.5094C5.68055 26.7587 4.28385 26.9971 2.73817 27.0832C2.61598 27.1044 2.49027 27.0797 2.38523 27.0138C2.26758 26.9173 2.26758 26.7432 2.26758 26.5914C2.26758 24.773 2.34904 22.9554 2.43043 21.1391C2.54541 18.5736 2.66026 16.0109 2.54523 13.4526C2.44289 11.2762 2.80379 9.10275 3.60405 7.07615C4.28777 5.32853 5.36036 3.75947 6.74052 2.48792C7.11521 2.14929 7.51738 1.84235 7.94287 1.57027C11.104 -0.462669 15.4193 -0.563845 18.604 1.5138ZM8.23229 10.3338L9.88993 11.5103L15.2311 6.17027L14.5593 5.74557C13.9191 6.83065 13.0405 7.75594 11.9899 8.45145C10.8297 9.24843 9.56531 9.88183 8.23229 10.3338Z" fill="#00214E"/>
<path id="Path" d="M27.3498 27.3785C19.4853 33.434 8.51577 33.3855 0.705078 27.2609L6.42978 24.5773C6.60501 24.4945 6.77583 24.4026 6.94155 24.302L7.07331 24.2197C7.12037 24.1903 7.16625 24.1597 7.21214 24.1279C7.93438 23.6297 8.52629 22.9651 8.93802 22.1903C9.40861 21.302 9.5639 20.3209 9.57096 19.3209C9.57096 18.7714 9.54861 18.222 9.53449 17.6738C9.53449 17.5507 9.53214 17.4271 9.52743 17.3032C9.52272 16.9307 9.5188 16.5577 9.51567 16.1844H9.52272L9.74861 16.302L10.3604 16.6185L13.9239 17.2244L17.5851 17.8479L17.6721 20.7891L17.6921 21.4832V21.6091L17.7474 23.4762L19.0968 24.0256L20.1557 24.4538L27.3498 27.3785Z" fill="#F2A196"/>
<path id="Path_2" d="M17.6716 20.7879C17.4172 20.9627 17.1131 21.0506 16.8046 21.0385C15.0658 20.8514 11.6705 19.4879 9.53636 16.9644C9.53636 16.8413 9.534 16.7177 9.5293 16.5938C9.5293 16.4573 9.5293 16.3209 9.5293 16.1844L9.75518 16.302L10.3669 16.6185L13.9305 17.2244L17.5917 17.8479L17.6716 20.7879Z" fill="#E88870"/>
<circle id="Oval" cx="6.2207" cy="12.4161" r="2" fill="#F2A196"/>
<circle id="Oval_2" cx="6.92773" cy="12.1808" r="2" fill="#E88870"/>
<path id="Path_3" d="M20.1668 9.38789C21.548 14.1738 18.6127 19.9608 16.8091 19.9608C14.3386 19.9608 8.33856 17.9867 6.95856 13.2008C5.57856 8.41495 7.41856 3.68084 11.0656 2.62907C14.7127 1.57731 18.7844 4.60084 20.1668 9.38789Z" fill="#F2A196"/>
<path id="Path_4" d="M13.3359 15.202C13.9011 15.8335 14.6761 16.2385 15.5171 16.342" stroke="#00214E"/>
<path id="Path_5" d="M15.7634 9.89148C15.7634 9.91501 16.327 10.8985 16.6246 11.9609C16.7622 12.5292 16.8258 13.1128 16.814 13.6974H15.2246" stroke="#00214E"/>
<path id="Path_6" d="M17.2227 8.8903C18.0538 8.46687 19.0151 8.376 19.9109 8.63618" stroke="#00214E"/>
<path id="Path_7" d="M10.2656 9.35854C11.4118 8.77471 12.7585 8.73159 13.9397 9.24089" stroke="#00214E"/>
<path id="Path_8" d="M12.329 10.4009C13.0466 10.4068 13.0466 11.5032 12.329 11.5091H12.296C11.5784 11.5091 11.5784 10.4068 12.296 10.4009H12.329Z" fill="#00214E"/>
<path id="Path_9" d="M18.2241 10.2373C18.8912 10.2373 18.8912 11.2608 18.2241 11.2655H18.1947C17.5288 11.2655 17.5288 10.242 18.1947 10.2373H18.2241Z" fill="#00214E"/>
<path id="Path_10" d="M15.8816 1.3726C15.8269 1.92663 15.7377 2.47672 15.6145 3.01966C15.404 3.97776 15.0469 4.89761 14.5557 5.74672C13.9154 6.83181 13.0368 7.75709 11.9863 8.4526C10.8261 9.24958 9.56166 9.88298 8.22864 10.335C7.18864 10.6973 6.11099 10.7291 4.99805 10.9502C5.03452 10.0526 4.99805 9.17731 5.10864 8.13495C5.19099 7.38672 5.35569 6.6726 5.68746 6.09731C6.58761 4.57509 7.90069 3.33912 9.47452 2.5326L9.48864 2.52554C11.2286 1.63025 13.9239 0.746717 15.8816 1.3726Z" fill="#00214E"/>
<circle id="Oval_3" cx="6.51565" cy="12.4115" r="0.707059" fill="#F2D4CF"/>
<path id="Path_11" d="M5.17415 14.1138C5.13062 14.1067 5.08592 14.0985 5.04121 14.0879C4.192 13.8926 3.62498 13.0906 3.72412 12.2249C3.82326 11.3592 4.5569 10.7061 5.42827 10.7079C5.47839 10.7077 5.52206 10.742 5.53382 10.7907C5.54558 10.8394 5.52235 10.8899 5.47768 10.9126C4.95822 11.1924 4.61944 11.7199 4.58118 12.3087C4.54292 12.8975 4.81056 13.4644 5.28945 13.8091C5.35213 13.8533 5.37696 13.9343 5.34981 14.0061C5.32267 14.0778 5.25041 14.1221 5.17415 14.1138Z" fill="#F2D4CF"/>
<path id="Path_12" d="M5.13672 10.8938C5.38045 10.8009 5.65036 10.8038 5.89201 10.902C6.14852 11.0161 6.34443 11.2338 6.43084 11.5009C6.49759 11.6894 6.52638 11.8894 6.51554 12.0891" stroke="#F2D4CF" stroke-width="2"/>
<path id="Path_13" d="M27.3498 27.3785C19.4853 33.434 8.51577 33.3855 0.705078 27.2609L6.42978 24.5773C6.70242 24.4492 6.96408 24.2989 7.21214 24.1279C7.28743 24.0762 7.36272 24.022 7.43449 23.9656C8.05753 23.4889 8.57038 22.8833 8.93802 22.1903C9.21595 21.6578 9.40059 21.0816 9.4839 20.4868C9.56699 20.5673 9.65416 20.6434 9.74508 20.715C10.4664 21.2488 11.2492 21.694 12.0768 22.0409C12.4786 22.2085 12.8894 22.3534 13.3074 22.475C14.5667 22.8422 15.8815 22.9812 17.1898 22.8856C17.371 22.8715 17.5533 22.8538 17.7345 22.8409L17.7521 23.4385V23.4773L19.1757 24.0562L27.3498 27.3785Z" fill="#F2D4CF"/>
<path id="Path_14" d="M14.5529 5.75143C13.9127 6.83652 13.034 7.7618 11.9835 8.45731C10.8233 9.25429 9.55889 9.88769 8.22587 10.3397L5.10587 8.13966L3.60352 7.08084C4.28724 5.33321 5.35983 3.76416 6.73999 2.4926C7.1145 2.15234 7.51667 1.84383 7.94234 1.57025L9.47175 2.53731L14.5529 5.75143Z" fill="url(#paint0_linear_774_2357)"/>
</g>
<defs>
<linearGradient id="paint0_linear_774_2357" x1="10.9473" y1="13.6408" x2="15.6777" y2="3.82521" gradientUnits="userSpaceOnUse">
<stop offset="0.29" stop-color="#00214E"/>
<stop offset="0.51" stop-color="#6878B1"/>
<stop offset="0.79" stop-color="#00214E"/>
</linearGradient>
</defs>
</svg>
