<svg width="28" height="34" viewBox="0 0 28 34" fill="none" xmlns="http://www.w3.org/2000/svg">
<g id="Artboard 102">
<path id="Path" d="M5.83764 14.2461C4.56069 11.6308 4.73024 8.45319 6.172 5.93672C8.25995 2.29554 12.9303 0.567307 16.9912 0.782602C17.7903 0.824954 18.6618 0.976719 19.1835 1.57907C19.3459 1.76731 19.4799 2.00143 19.7111 2.09437C19.8721 2.14387 20.0419 2.15831 20.2091 2.13672C20.9608 2.1026 21.7409 2.21201 22.38 2.60731C23.0191 3.0026 23.4874 3.71672 23.4352 4.46025C23.4198 4.67672 23.3653 4.90613 23.4578 5.10143C23.5348 5.26496 23.6949 5.36848 23.8301 5.49437C24.1858 5.83672 24.3043 6.37084 24.2474 6.86143C24.066 8.48495 23.5989 10.1638 22.731 11.5673C22.1963 12.4407 21.5274 13.2258 20.7485 13.8944C19.9802 14.5508 19.0258 14.8602 18.3618 15.6144C17.6682 16.4014 17.7559 17.4685 17.0753 18.3202C16.3533 19.2261 15.2969 19.8097 14.1788 20.0955C12.9267 20.4179 10.47 20.5367 9.35076 19.7967C9.01166 19.572 8.76979 19.232 8.54095 18.8967C7.52913 17.4125 6.62572 15.8584 5.83764 14.2461Z" fill="#DAAEA8"/>
<path id="Path_2" d="M27.2982 28.7814C19.3723 34.8369 8.31703 34.7884 0.445312 28.6638L6.21474 25.9802C6.48971 25.8502 6.75342 25.6979 7.00321 25.525C7.07909 25.4732 7.15497 25.4191 7.2273 25.3626C7.85521 24.8859 8.37206 24.2803 8.74257 23.5873C9.02268 23.0548 9.20875 22.4786 9.29272 21.8838C9.35062 21.4978 9.37995 21.1081 9.38046 20.7179C9.38046 20.045 9.3437 19.372 9.33659 18.6979C9.33185 18.3253 9.3279 17.9524 9.32473 17.5791L9.56186 17.6967L10.1784 18.0132L10.4642 18.0614L13.7698 18.6191L17.4596 19.2426L17.571 23.0073L17.6078 24.2379L17.6255 24.8355V24.8744L19.0602 25.4532L27.2982 28.7814Z" fill="#845161"/>
<path id="Path_3" d="M27.2982 28.7814C19.3723 34.8369 8.31703 34.7884 0.445312 28.6638L6.21474 25.9803C6.48971 25.8502 6.75342 25.6979 7.00321 25.525C7.07909 25.4732 7.15497 25.4191 7.2273 25.3626C10.0195 27.3344 13.8302 28.5779 17.1264 27.1061C17.9113 26.7532 18.6322 26.1838 19.059 25.452L27.2982 28.7814Z" fill="#DE8276"/>
<path id="Path_4" d="M17.6183 24.8391C16.3793 24.9132 14.9945 24.5955 13.7056 23.8579C11.2857 22.4708 9.99216 20.052 10.4569 18.0685L13.7626 18.6261L17.4523 19.2497L17.5638 23.0144L17.6183 24.8391Z" fill="#69303A"/>
<ellipse id="Oval" cx="8.1582" cy="14.2897" rx="2.01563" ry="2" fill="#845161"/>
<ellipse id="Oval_2" cx="8.79677" cy="14.2897" rx="1.80458" ry="1.79059" fill="#69303A"/>
<path id="Path_5" d="M8.82422 12.4014L9.09929 15.952L9.27833 18.2732C9.34472 19.1273 9.68027 19.6391 10.2411 20.3226C11.2367 21.5344 12.5044 22.4981 13.9427 23.1367C15.3169 23.7449 17.2246 24.3497 18.6925 23.7602C20.1923 23.1567 20.6714 21.4861 21.1753 20.1002C21.6792 18.7144 22.1487 17.1897 22.1238 15.6932C22.0918 13.6626 21.5499 12.5249 21.5499 12.5249C21.6811 11.7406 21.8124 10.9587 21.9436 10.1791C22.0918 9.29554 22.2827 8.37201 22.0621 7.48495C21.8096 6.46612 21.0342 6.03201 20.4022 5.26965C18.7233 7.41554 15.9631 8.62848 13.5526 9.85789C12.3101 10.4979 8.82422 12.4014 8.82422 12.4014Z" fill="#845161"/>
<path id="Path_6" d="M17.8887 12.9756C17.8816 13.0038 18.5456 14.8438 18.9475 15.9544C19.0147 16.1444 18.9844 16.3549 18.8665 16.5188C18.7485 16.6826 18.5576 16.7793 18.3547 16.7779H17.9243" stroke="#00214E"/>
<path id="Path_7" d="M16.2699 16.0649C16.1097 16.1569 16.0419 16.3516 16.1107 16.522C16.1795 16.6924 16.3639 16.7869 16.5438 16.7438" stroke="#00214E"/>
<path id="Path_8" d="M12.2031 11.6132C13.3006 11.3874 14.4297 11.3555 15.5384 11.5191" stroke="#00214E"/>
<path id="Path_9" d="M19.625 11.5003C20.3028 11.3449 21.0011 11.2968 21.694 11.3579" stroke="#00214E"/>
<path id="Path_10" d="M13.25 18.6579C13.6888 17.942 14.3133 17.3562 15.0581 16.9614" stroke="#00214E"/>
<path id="Path_11" d="M15.3751 13.4073C15.3168 13.8933 14.9998 14.3107 14.5452 14.5003C14.3006 14.5891 14.0449 14.6437 13.7852 14.6626" stroke="#00214E"/>
<path id="Path_12" d="M15.5371 9.59084H19.2838" stroke="#00214E"/>
<path id="Path_13" d="M15.0586 10.3591H18.8065" stroke="#00214E"/>
<path id="Path_14" d="M19.2656 13.132C19.3787 13.4321 19.5276 13.7176 19.7091 13.9826C19.8867 14.2267 20.1512 14.3949 20.4489 14.4532" stroke="#00214E"/>
<path id="Path_15" d="M14.6804 18.2485C14.7127 18.1966 14.7656 18.1605 14.826 18.1491C14.8864 18.1377 14.9489 18.152 14.9982 18.1885C15.2448 18.3614 15.6953 18.7249 16.3356 18.852C17.2082 19.0238 17.9659 18.6779 18.1461 18.9014C18.2481 19.0273 18.1236 19.1802 17.8852 19.3779C17.3806 19.7515 16.7454 19.9076 16.1234 19.8108C15.2839 19.6555 14.6543 18.6897 14.6543 18.3485C14.6538 18.3134 14.6628 18.2789 14.6804 18.2485Z" fill="white"/>
<path id="Path_16" d="M14.3588 12.6261C15.0833 12.6179 15.1046 13.7156 14.3813 13.7344H14.3482C13.6249 13.7426 13.6036 12.645 14.3268 12.6261H14.3588Z" fill="#00214E"/>
<path id="Path_17" d="M20.314 12.4332C20.9863 12.4261 21.0052 13.4438 20.3342 13.4626H20.3045C19.6334 13.4708 19.6133 12.452 20.2844 12.4344H20.314V12.4332Z" fill="#00214E"/>
</g>
</svg>
