<svg width="28" height="34" viewBox="0 0 28 34" fill="none" xmlns="http://www.w3.org/2000/svg">
<g id="Artboard 33_1">
<path id="Path" d="M27.3498 28.6493C19.4853 34.7048 8.51577 34.6563 0.705078 28.5317L6.42978 25.8481C6.70242 25.72 6.96408 25.5697 7.21214 25.3987C7.28743 25.347 7.36272 25.2929 7.43449 25.2364C8.05753 24.7597 8.57038 24.1541 8.93802 23.4611C9.21595 22.9286 9.40059 22.3524 9.4839 21.7576C9.54135 21.3716 9.57045 20.9819 9.57096 20.5917C9.57096 19.9187 9.53449 19.2458 9.52743 18.5717C9.52272 18.1983 9.5188 17.8254 9.51567 17.4529L9.75096 17.5705L10.3627 17.887L10.6463 17.9352L13.9263 18.4929L17.5874 19.1164L17.698 22.8811L17.7345 24.1117L17.7521 24.7093V24.7481L19.1757 25.327L27.3498 28.6493Z" fill="#DE8276"/>
<path id="Path_2" d="M17.7294 24.7493C17.3251 24.8189 16.9091 24.7544 16.5447 24.5658L9.52473 18.827C9.51649 18.5611 9.50943 18.8399 9.50591 18.574C9.5012 18.2007 9.49728 17.8277 9.49414 17.4552L9.72943 17.5728L10.3412 17.8893L10.6247 17.9376L13.9047 18.4952L17.5659 19.1187L17.6765 22.8834L17.713 24.114L17.7306 24.7117V24.7505L17.7294 24.7493Z" fill="#A76962"/>
<path id="Path_3" d="M21.3528 14.2846C21.1699 14.4759 20.9694 14.6496 20.754 14.8034C19.5305 15.6893 17.8975 15.9799 16.5022 16.4575C15.914 16.6587 9.53517 18.4717 9.53517 18.8658C9.53517 18.7799 8.91047 18.1599 8.12341 17.407C5.40878 14.807 4.50377 10.8399 5.82223 7.31989C7.10576 3.94695 11.1975 1.62225 14.6246 1.0846C16.2563 0.829306 18.1928 0.686953 19.6999 1.46931C20.4705 1.87048 21.1116 2.45519 21.6999 3.10342C21.8834 3.30813 22.0614 3.51715 22.234 3.73048C22.3081 3.81989 22.3811 3.90931 22.4528 3.99989C25.1316 7.3646 24.1822 11.3117 21.3528 14.2846Z" fill="url(#paint0_linear_774_1740)"/>
<path id="Path_4" d="M21.3529 14.2846C21.17 14.4759 20.9695 14.6496 20.7541 14.8034C20.7039 14.7159 20.6587 14.6255 20.6188 14.5328C20.3082 13.827 20.1482 13.0611 20.0306 12.2975C19.8474 11.1864 19.7221 10.0664 19.6553 8.94225C19.5482 7.13754 18.7776 6.24225 20.3106 4.83519C20.8622 4.32961 21.5192 3.95271 22.2341 3.73166C22.3082 3.82107 22.3812 3.91048 22.4529 4.00107C25.1318 7.3646 24.1823 11.3117 21.3529 14.2846Z" fill="url(#paint1_linear_774_1740)"/>
<circle id="Oval" cx="8.35742" cy="14.1611" r="2" fill="#E18477"/>
<circle id="Oval_2" cx="8.99371" cy="14.1611" r="1.79059" fill="#A76962"/>
<path id="Path_5" d="M9.14355 12.2646C9.2412 13.5422 9.23767 15.1022 9.27179 15.5587C9.36042 16.703 9.44826 17.847 9.53532 18.9905L17.3518 23.5564C18.4736 23.9757 19.7305 23.4741 20.2553 22.3975C21.38 20.094 23.1847 16.4564 22.9471 15.1034C22.5941 13.1034 21.653 12.3975 21.653 12.3975L22.0447 10.0517C22.4412 7.66695 21.6236 5.40931 18.8377 5.14813C18.2494 5.09401 17.5941 5.20578 17.2447 5.67519C16.3036 6.94107 16.8459 8.49872 15.433 9.67519C13.7177 11.0905 9.89061 11.7081 8.99414 10.5658C8.99414 10.5658 9.07649 11.374 9.14355 12.2646Z" fill="#DE8276"/>
<path id="Path_6" d="M15.0078 17.2552C15.5731 17.8865 16.348 18.2915 17.189 18.3952" stroke="#00214E"/>
<path id="Path_7" d="M17.7869 11.7011C17.7775 11.7423 19.3586 15.9517 19.3586 15.9517L17.248 16.054" stroke="#00214E"/>
<ellipse id="Oval_3" cx="14.9105" cy="13.1881" rx="1.78353" ry="1.78353" fill="#00214E"/>
<ellipse id="Oval_4" cx="20.9515" cy="12.8999" rx="1.78353" ry="1.78353" fill="#00214E"/>
<path id="Path_8" d="M16.3516 13.2928L19.3551 13.0364" stroke="#00214E"/>
<path id="Path_9" d="M12.7891 10.8846C13.8781 10.6593 14.9984 10.6275 16.0985 10.7905" stroke="#00214E"/>
<path id="Path_10" d="M19.7363 10.8999C20.4087 10.7432 21.1017 10.6952 21.7893 10.7575" stroke="#00214E"/>
<path id="Path_11" d="M27.3498 28.6493C19.4853 34.7048 8.51577 34.6563 0.705078 28.5317L6.42978 25.8481C6.70242 25.72 6.96408 25.5697 7.21214 25.3987C7.28743 25.347 7.36272 25.2928 7.43449 25.2364C8.05753 24.7596 8.57038 24.1541 8.93802 23.4611C9.21595 22.9286 9.40059 22.3524 9.4839 21.7575C9.56699 21.838 9.65416 21.9142 9.74508 21.9858C10.4664 22.5192 11.2493 22.964 12.0768 23.3105C12.4786 23.4781 12.8894 23.623 13.3074 23.7446C14.5667 24.1118 15.8815 24.2509 17.1898 24.1552C17.371 24.1411 17.5533 24.1234 17.7345 24.1105L17.7521 24.7081V24.7469L19.1757 25.3258L27.3498 28.6493Z" fill="#00214E"/>
<path id="Path_12" d="M14.3924 12.2069C15.11 12.2069 15.11 13.3105 14.3924 13.3164H14.3594C13.6406 13.3164 13.6406 12.2128 14.3594 12.2069H14.3912H14.3924Z" fill="#00214E"/>
<path id="Path_13" d="M20.2917 12.0434C20.9576 12.0493 20.9576 13.067 20.2917 13.0728H20.2611C19.5952 13.0728 19.5952 12.0493 20.2611 12.0434H20.2917Z" fill="#00214E"/>
</g>
<defs>
<linearGradient id="paint0_linear_774_1740" x1="5.21752" y1="18.8704" x2="24.0387" y2="18.8704" gradientUnits="userSpaceOnUse">
<stop stop-color="#16243F"/>
<stop offset="1" stop-color="#6878B1"/>
</linearGradient>
<linearGradient id="paint1_linear_774_1740" x1="16.3023" y1="11.0099" x2="24.1938" y2="13.2488" gradientUnits="userSpaceOnUse">
<stop stop-color="#16243F"/>
<stop offset="1" stop-color="#6878B1"/>
</linearGradient>
</defs>
</svg>
