<svg width="28" height="38" viewBox="0 0 28 38" fill="none" xmlns="http://www.w3.org/2000/svg">
<g id="Artboard 88">
<path id="Path" d="M15.0676 6.91294C14.9065 7.60353 13.9841 7.94471 13.5947 8.48824C13.1912 9.05059 13.1547 10.0294 12.5759 10.3894C11.997 10.7494 11.1041 10.3494 10.4206 10.4624C9.76176 10.5718 9.04764 11.2471 8.35587 11.0859C7.66411 10.9247 7.32411 10.0024 6.78058 9.61294C6.21823 9.20941 5.2394 9.17412 4.8794 8.59412C4.5194 8.01412 4.9194 7.12235 4.80646 6.43882C4.69705 5.78 4.02176 5.06588 4.18293 4.37529C4.34411 3.68471 5.26528 3.34235 5.6547 2.79882C6.0594 2.23647 6.0947 1.25765 6.67352 0.897647C7.25234 0.537647 8.14646 0.937647 8.82999 0.824706C9.48881 0.716471 10.2029 0.0400002 10.8935 0.201177C11.5841 0.362353 11.9265 1.28471 12.47 1.67412C13.0323 2.07765 14.01 2.11294 14.37 2.69294C14.73 3.27294 14.33 4.16471 14.4441 4.84824C14.5523 5.50706 15.2288 6.22118 15.0676 6.91294Z" fill="#DAAEA8"/>
<path id="Path_2" d="M17.1649 22.7718C16.8684 23.1247 16.6119 23.5118 16.3096 23.8588C14.7072 25.7012 11.2155 24.4894 9.48016 23.3882C8.20487 22.5824 7.24487 21.3659 6.42134 20.1C5.40957 18.5388 4.56487 16.8412 4.19781 15.0177C2.51899 6.66472 13.2308 3.02942 19.2413 7.12825C21.4766 8.65766 23.4966 12.0882 23.006 14.8377C22.7555 16.233 21.7637 17.4882 21.8696 18.9024C21.9872 20.4247 23.3625 21.8741 22.786 23.2882C22.5613 23.8424 22.0743 24.2365 21.679 24.6859C21.1472 25.2906 20.7578 26.0482 20.7119 26.853C20.666 27.6577 21.0002 28.5 21.6637 28.9612C20.0249 28.7424 19.0155 26.7812 19.439 25.1824C19.5778 24.6588 19.8343 24.1682 19.946 23.6377C20.0578 23.1071 19.9919 22.4871 19.586 22.1271C19.0649 21.6647 18.2155 21.84 17.6684 22.2718C17.4841 22.421 17.3154 22.5885 17.1649 22.7718Z" fill="#F2D4CF"/>
<path id="Path_3" d="M27.3498 33.2082C19.4853 39.2637 8.51577 39.2152 0.705078 33.0906L6.43567 30.4094C6.6109 30.3265 6.78171 30.2347 6.94743 30.1341L7.0792 30.0518C7.12625 30.0223 7.17214 29.9918 7.21802 29.96C7.94026 29.4617 8.53218 28.7972 8.9439 28.0223C9.41449 27.1341 9.56978 26.1529 9.57684 25.1529C9.57684 24.48 9.54037 23.8071 9.53331 23.1329C9.52861 22.7596 9.52468 22.3867 9.52155 22.0141L9.75684 22.1318L10.3686 22.4482L13.9321 23.0541L17.5933 23.6776L17.7039 27.4423L17.7592 29.3094L19.1086 29.8588L20.1674 30.2871L27.3498 33.2082Z" fill="#845161"/>
<path id="Path_4" d="M17.6951 27.4435C16.5116 27.6537 15.294 27.5585 14.1575 27.1671C11.6186 26.3141 9.90922 24.2565 9.74805 22.1365L10.3598 22.4529L13.9233 23.0588L17.5845 23.6824L17.6951 27.4435Z" fill="#69303A"/>
<circle id="Oval" cx="6.10352" cy="18.2494" r="2" fill="#845161"/>
<circle id="Oval_2" cx="6.81055" cy="18.0141" r="2" fill="#69303A"/>
<path id="Path_5" d="M20.5648 15.0977C22.0295 20.1741 19.1766 26.0682 17.0048 26.3106C11.7531 26.8988 8.02249 24.2177 6.55778 19.1412C5.09308 14.0647 7.04014 9.04589 10.9107 7.92942C14.7813 6.81295 19.099 10.0224 20.5648 15.0977Z" fill="#845161"/>
<path id="Path_6" d="M12.9375 21.3059C13.5031 21.9374 14.2784 22.3424 15.1199 22.4459" stroke="#00214E"/>
<path id="Path_7" d="M17.4512 16.6C17.4579 16.9095 17.5998 17.2005 17.8394 17.3965C18.0765 17.5909 18.3409 17.7494 18.6241 17.8671" stroke="#00214E"/>
<path id="Path_8" d="M16.0117 16.3459C16.0117 16.3753 16.6635 18.2141 17.0623 19.3259C17.1291 19.5147 17.1001 19.7242 16.9846 19.8879C16.8691 20.0516 16.6814 20.149 16.4811 20.1494H16.0529" stroke="#00214E"/>
<ellipse id="Oval_3" cx="12.4951" cy="16.8482" rx="2.23529" ry="1.39294" stroke="white"/>
<ellipse id="Oval_4" cx="18.9423" cy="16.5482" rx="2.23529" ry="1.39294" stroke="white"/>
<path id="Path_9" d="M14.7305 16.8482L16.7246 16.6965" stroke="white"/>
<path id="Path_10" d="M15.7762 9.37412C15.4938 9.93176 14.9056 10.4165 14.5527 10.9871C14.095 11.7341 13.7491 12.5459 13.3609 13.3306C13.0727 13.9188 12.7515 14.5 12.2644 14.9318C11.7774 15.3635 11.088 15.6188 10.4621 15.4388C10.0338 15.3212 9.68679 15.0106 9.30326 14.7824C8.91973 14.5541 8.43502 14.4035 8.03855 14.62C7.45973 14.9306 7.46796 15.7741 7.05385 16.2835C6.10443 17.4518 4.36208 15.8776 4.15149 14.8576C3.84561 13.3671 5.06796 12.1212 5.95738 11.0929C6.69973 10.2341 7.70326 8.9247 8.86796 8.63765C8.88796 8.63765 15.6915 5.93176 15.6915 5.93176C15.7515 6.84117 16.1186 8.18588 15.8997 9.05647C15.87 9.16646 15.8286 9.27296 15.7762 9.37412Z" fill="#F2D4CF"/>
<path id="Path_11" d="M14.5657 19.4118C14.4093 19.505 14.3438 19.698 14.4111 19.8671C14.4784 20.0363 14.6586 20.1315 14.8363 20.0918" stroke="#00214E"/>
<path id="Path_12" d="M17.168 14.4777C17.9991 14.0542 18.9604 13.9634 19.8562 14.2235" stroke="#00214E"/>
<path id="Path_13" d="M10.6836 14.9129C11.8299 14.3293 13.1765 14.2861 14.3577 14.7953" stroke="#00214E"/>
<path id="Path_14" d="M27.3498 33.2082C19.4853 39.2637 8.51577 39.2152 0.705078 33.0906L6.43567 30.4094C6.7083 30.2812 6.96996 30.1309 7.21802 29.96C7.29331 29.9082 7.36861 29.8541 7.44037 29.7976C8.06342 29.3209 8.57626 28.7154 8.9439 28.0223C9.22184 27.4899 9.40647 26.9137 9.48978 26.3188C9.57287 26.3993 9.66004 26.4755 9.75096 26.5471C10.4723 27.0805 11.2552 27.5252 12.0827 27.8718C12.4845 28.0393 12.8953 28.1843 13.3133 28.3059C14.5726 28.6731 15.8874 28.8121 17.1957 28.7165C17.3768 28.7023 17.5592 28.6847 17.7404 28.6718L17.758 29.2694V29.3082L19.1815 29.8871L27.3498 33.2082Z" fill="#00214E"/>
<path id="Path_15" d="M12.2891 18.0318C12.6179 18.0523 12.9411 17.9388 13.1849 17.7172C13.4287 17.4955 13.5724 17.1846 13.5832 16.8553" stroke="#00214E"/>
<path id="Path_16" d="M11.459 21.5718C11.6058 21.3258 11.7868 21.102 11.9966 20.9071C12.429 20.5106 12.9712 20.2543 13.5519 20.1718" stroke="#00214E"/>
<path id="Path_17" d="M14.4863 12.2212H17.2699" stroke="#00214E"/>
<path id="Path_18" d="M13.8066 13.1412H17.2702" stroke="#00214E"/>
<path id="Path_19" d="M12.6084 16.2341C13.3272 16.2259 13.3484 17.3235 12.6307 17.3424H12.5978C11.8801 17.3506 11.8589 16.2541 12.5766 16.2341H12.6084Z" fill="#00214E"/>
<path id="Path_20" d="M18.5189 16.0424C19.186 16.0341 19.2048 17.0518 18.5389 17.0706H18.5095C17.8436 17.0777 17.8236 16.06 18.4895 16.0412H18.5189V16.0424Z" fill="#00214E"/>
</g>
</svg>
