<svg width="28" height="33" viewBox="0 0 28 33" fill="none" xmlns="http://www.w3.org/2000/svg">
<g id="Artboard 78">
<path id="Path" d="M27.3498 27.5226C19.4853 33.5781 8.51577 33.5296 0.705078 27.405L6.42978 24.7215C6.70242 24.5933 6.96408 24.443 7.21214 24.272C7.28743 24.2203 7.36272 24.1662 7.43449 24.1097C8.05753 23.633 8.57038 23.0274 8.93802 22.3344C9.21595 21.8019 9.40059 21.2257 9.4839 20.6309C9.54135 20.2449 9.57045 19.8552 9.57096 19.465C9.57096 18.792 9.53449 18.1191 9.52743 17.445C9.52272 17.0724 9.5188 16.6995 9.51567 16.3262L9.75096 16.4438L10.3627 16.7603L10.6463 16.8085L13.9239 17.3697L17.5851 17.9932L17.6957 21.7579L17.7321 22.9885L17.7498 23.5862V23.625L19.1804 24.1932L27.3498 27.5226Z" fill="#F2D4CF"/>
<path id="Path_2" d="M27.3498 27.5226C19.4853 33.5781 8.51577 33.5296 0.705078 27.405L6.42978 24.7215C6.70242 24.5933 6.96408 24.443 7.21214 24.272C7.28743 24.2203 7.36272 24.1662 7.43449 24.1097C10.2051 26.0815 13.9863 27.325 17.2568 25.8532C18.0357 25.5003 18.751 24.9309 19.1745 24.1991L27.3498 27.5226Z" fill="url(#paint0_linear_774_2433)"/>
<path id="Path_3" d="M17.7476 23.5803C16.5182 23.6544 15.1441 23.3368 13.8653 22.5991C11.4641 21.212 10.1806 18.7932 10.6418 16.8097L13.9218 17.3697L17.5829 17.9932L17.6935 21.7579L17.7476 23.5803Z" fill="#DAAEA8"/>
<path id="Path_4" d="M24.0036 5.21675C23.3911 7.23008 22.7052 9.2195 21.946 11.185C21.413 12.5673 21.1836 13.6885 19.773 14.3426C18.7342 14.8238 17.5766 14.9591 16.5001 15.3273C15.9119 15.5297 9.53303 17.3415 9.53303 17.7367C9.53303 17.6509 8.90833 17.0309 8.12127 16.2768C6.68717 14.9128 5.72042 13.1308 5.35892 11.185C5.06127 9.53793 5.31186 7.51793 5.79303 5.92734C8.12127 -1.75501 19.2707 -0.252661 25.1542 1.08969C24.8052 2.47479 24.4217 3.85048 24.0036 5.21675Z" fill="url(#paint1_linear_774_2433)"/>
<circle id="Oval" cx="8.35742" cy="13.0309" r="2" fill="#F2D4CF"/>
<ellipse id="Oval_2" cx="8.99176" cy="13.0309" rx="1.79059" ry="1.79059" fill="#DAAEA8"/>
<path id="Path_5" d="M9.01953 11.1426L9.29835 14.6932L9.47012 17.0168C9.536 17.8709 9.86894 18.3826 10.4254 19.0662C11.4142 20.279 12.6739 21.2429 14.1031 21.8803C15.4666 22.4885 17.3595 23.0944 18.8089 22.5038C20.2972 21.9003 20.7736 20.2297 21.2795 18.8438C21.7854 17.4579 22.2454 15.9344 22.2207 14.4379C22.1889 12.4073 21.6513 11.2685 21.6513 11.2685C21.7823 10.4842 21.9125 9.70225 22.0419 8.92264C22.1889 8.03911 22.3784 7.11676 22.1595 6.22852C21.9089 5.2097 21.1407 4.77558 20.5125 4.0144C18.8466 6.16029 16.1078 7.37323 13.716 8.60264C12.4748 9.24029 9.01953 11.1426 9.01953 11.1426Z" fill="#F2D4CF"/>
<path id="Path_6" d="M12.373 10.3544C13.4621 10.1292 14.5823 10.0973 15.6825 10.2603" stroke="#00214E"/>
<path id="Path_7" d="M19.7363 10.2426C20.4091 10.0861 21.1025 10.038 21.7904 10.1003" stroke="#00214E"/>
<path id="Path_8" d="M13.416 17.3991C13.8514 16.6832 14.471 16.0974 15.2101 15.7026" stroke="#00214E"/>
<path id="Path_9" d="M15.6593 12.085C15.6117 12.4856 15.3884 12.8443 15.0499 13.0638C14.9812 13.1097 14.9083 13.1491 14.8322 13.1815C14.5896 13.27 14.3358 13.3243 14.0781 13.3426" stroke="#00214E"/>
<path id="Path_10" d="M15.6777 8.33205H19.3966" stroke="#00214E"/>
<path id="Path_11" d="M15.2051 9.10028H18.9239" stroke="#00214E"/>
<path id="Path_12" d="M19.3789 12.0532C19.4919 12.3526 19.6396 12.6377 19.8189 12.9026C19.9957 13.1469 20.2584 13.315 20.5542 13.3732" stroke="#00214E"/>
<path id="Path_13" d="M18.9866 14.3885C19.0421 14.4761 19.0931 14.5664 19.1395 14.6591C19.1929 14.7467 19.2289 14.8437 19.2454 14.945C19.2486 15.0183 19.2184 15.0891 19.1633 15.1376C19.1082 15.186 19.0342 15.2069 18.9619 15.1944C18.8877 15.1791 18.8572 15.2932 18.9313 15.312C19.0263 15.3307 19.1248 15.3108 19.2052 15.2567C19.2855 15.2026 19.341 15.1189 19.3595 15.0238C19.3671 14.9025 19.3385 14.7817 19.2772 14.6767C19.2214 14.5582 19.1585 14.4431 19.0889 14.332C19.0489 14.2685 18.9466 14.332 18.9866 14.392V14.3885Z" fill="#00214E"/>
<path id="Path_14" d="M17.02 14.5262C16.92 14.6862 16.8012 14.8862 16.8589 15.0826C16.9047 15.2426 17.0742 15.3909 17.2483 15.3285C17.3189 15.3026 17.2883 15.1885 17.2165 15.2109C17.0989 15.2556 16.9812 15.1309 16.9647 15.0179C16.94 14.8626 17.0436 14.7073 17.1212 14.5815C17.1624 14.5168 17.06 14.4579 17.02 14.5226V14.5262Z" fill="#00214E"/>
<path id="Path_15" d="M15.1445 16.6638C15.7098 17.2951 16.4847 17.7001 17.3257 17.8038" stroke="#00214E"/>
<ellipse id="Oval_3" cx="14.5127" cy="11.9083" rx="0.384706" ry="0.934118" transform="rotate(-85.77 14.5127 11.9083)" fill="#00214E"/>
<ellipse id="Oval_4" cx="20.5721" cy="11.718" rx="0.934118" ry="0.384706" transform="rotate(-8.86 20.5721 11.718)" fill="#00214E"/>
</g>
<defs>
<linearGradient id="paint0_linear_774_2433" x1="0.705078" y1="32.0306" x2="27.3498" y2="32.0306" gradientUnits="userSpaceOnUse">
<stop stop-color="#16243F"/>
<stop offset="1" stop-color="#6878B1"/>
</linearGradient>
<linearGradient id="paint1_linear_774_2433" x1="5.22715" y1="17.7384" x2="25.1542" y2="17.7384" gradientUnits="userSpaceOnUse">
<stop stop-color="#315676"/>
<stop offset="1" stop-color="#E1B9E0"/>
</linearGradient>
</defs>
</svg>
