<svg width="28" height="36" viewBox="0 0 28 36" fill="none" xmlns="http://www.w3.org/2000/svg">
<g id="Artboard 62">
<path id="Path" d="M27.403 30.7509C19.5995 36.8064 8.71499 36.7579 0.964844 30.6333L6.64517 27.9498C6.91569 27.8216 7.17532 27.6713 7.42146 27.5003C7.49617 27.4486 7.57088 27.3945 7.64209 27.338C8.26031 26.8613 8.76918 26.2557 9.13396 25.5627C9.40975 25.0302 9.59295 24.454 9.67562 23.8592C9.73262 23.4732 9.76149 23.0835 9.762 22.6933C9.762 22.2862 9.75149 21.8792 9.73748 21.4721C9.72931 21.2062 9.72231 20.9392 9.71881 20.6733C9.71414 20.3007 9.71025 19.9278 9.70713 19.5545L9.9406 19.6721L10.5476 19.9886L10.829 20.0368L14.0835 20.5945L17.7163 21.218L17.8261 24.9827L17.8622 26.2133L17.8798 26.8109V26.8474L17.9965 26.8968L19.2887 27.4262L27.403 30.7509Z" fill="#F2A196"/>
<path id="Path_2" d="M17.8785 26.8474C17.4773 26.917 17.0645 26.8525 16.703 26.6639L9.73738 20.9262C9.72921 20.6604 9.72221 20.938 9.7187 20.6721C9.71404 20.2996 9.71014 19.9266 9.70703 19.5533L9.9405 19.6709L10.5475 19.9874L10.8289 20.0356L14.0834 20.5933L17.7162 21.2168L17.826 24.9815L17.8621 26.2121L17.8797 26.8098V26.8474H17.8785Z" fill="#E88870"/>
<path id="Path_3" d="M27.403 30.7509C19.5995 36.8064 8.71499 36.7579 0.964844 30.6333L6.64517 27.9498C6.91569 27.8216 7.17532 27.6713 7.42146 27.5004C7.49617 27.4486 7.57088 27.3945 7.64209 27.338C10.3912 29.3098 14.1431 30.5533 17.3883 29.0815C18.1611 28.7286 18.8708 28.1592 19.2911 27.4274L27.403 30.7509Z" fill="url(#paint0_linear_774_3065)"/>
<path id="Path_4" d="M25.3131 7.18859C25.3026 7.258 25.2897 7.32623 25.2746 7.39447C25.1936 7.74424 25.0635 8.08058 24.8882 8.39329L24.8788 8.40976C24.8123 8.52741 24.7411 8.64506 24.664 8.7627C24.4596 9.06472 24.2366 9.35353 23.9963 9.62741L23.8527 9.78859C23.7558 9.898 23.6578 10.0051 23.5597 10.1109C24.0792 9.99329 24.5823 10.4815 24.6745 11.0086C24.7668 11.5356 24.5578 12.0674 24.2998 12.538C23.8481 13.3709 23.1967 13.9251 22.6235 14.6486C22.1939 15.1874 21.9558 15.8251 21.4877 16.3404L21.4527 16.3792C20.2164 17.6874 18.2646 17.9933 16.6397 18.5521C16.056 18.7545 9.72661 20.5662 9.72661 20.9615C9.72661 20.8756 9.10675 20.2556 8.32579 19.5015C5.52415 16.8204 4.60311 12.678 6.27009 9.12506C8.06197 5.30153 12.1314 2.57329 16.007 1.2627C17.2187 0.853292 18.5938 0.577998 19.7425 1.14506C20.8912 1.71212 21.4632 3.47094 20.5106 4.32976C21.1097 3.87293 21.8549 3.65471 22.6037 3.71682C23.2952 3.76049 23.9474 4.05611 24.4387 4.54859C24.8279 4.9426 25.1077 5.43265 25.25 5.96976C25.3556 6.36709 25.3771 6.78235 25.3131 7.18859Z" fill="#845161"/>
<path id="Path_5" d="M25.314 7.18858C25.3034 7.25799 25.2906 7.32623 25.2754 7.39446C25.2649 7.41446 25.2544 7.43564 25.2439 7.45917C25.112 7.7627 25.0513 8.08976 24.8937 8.39329L24.8844 8.40976C24.8178 8.52741 24.7466 8.64505 24.6696 8.7627C24.4671 9.06618 24.244 9.35511 24.0018 9.62741L23.8536 9.78858C23.7567 9.89799 23.6586 10.0051 23.5606 10.1109C24.0801 9.99329 24.5832 10.4815 24.6754 11.0086C24.7676 11.5356 24.5587 12.0674 24.3007 12.538C23.8489 13.3709 23.1975 13.9251 22.6244 14.6486C22.1948 15.1874 21.9567 15.8251 21.4885 16.3403C20.9451 15.689 20.599 14.8939 20.4916 14.0498C20.3002 12.4898 20.4169 10.7898 20.3644 9.21093C20.3317 8.21799 20.0142 8.03446 20.6049 7.23093C21.0798 6.64035 21.6292 6.11474 22.2392 5.66741C22.7154 5.35093 23.3283 5.30152 23.8968 5.3827C24.3922 5.45097 24.8596 5.65437 25.2486 5.97093C25.3547 6.36772 25.377 6.78256 25.314 7.18858Z" fill="#69303A"/>
<ellipse id="Oval" cx="8.55871" cy="16.2592" rx="1.9845" ry="2" fill="#F2A196"/>
<ellipse id="Oval_2" cx="9.18686" cy="16.2592" rx="1.77671" ry="1.79059" fill="#E88870"/>
<path id="Path_6" d="M9.21484 14.3768L9.72848 21.0827L17.4844 25.6498C18.5959 26.0676 19.8408 25.568 20.363 24.4945C21.479 22.1909 23.2697 18.5533 23.0339 17.2003C22.6837 15.2003 21.7499 14.4945 21.7499 14.4945C21.8798 13.7102 22.009 12.9282 22.1374 12.1486C22.2845 11.2651 22.4724 10.3427 22.2542 9.45447C22.0055 8.43564 21.2421 8.00153 20.614 7.24035C18.9611 9.38623 16.2435 10.5992 13.8702 11.8286C12.6469 12.4686 9.21484 14.3768 9.21484 14.3768Z" fill="#F2A196"/>
<path id="Path_7" d="M14.9476 14.118C15.6597 14.118 15.6597 15.2215 14.9476 15.2274H14.9149C14.2028 15.2274 14.2028 14.1239 14.9149 14.118H14.9476Z" fill="#00214E"/>
<path id="Path_8" d="M20.8001 13.9545C21.462 13.9604 21.462 14.978 20.8001 14.9839H20.7709C20.1102 14.9839 20.1102 13.9604 20.7709 13.9545H20.8001Z" fill="#00214E"/>
<path id="Path_9" d="M17.9155 13.7992C17.9062 13.8403 19.4751 18.0498 19.4751 18.0498L17.3809 18.1521" stroke="#00214E"/>
<path id="Path_10" d="M12.9551 12.9851C14.0358 12.7602 15.1473 12.7287 16.2388 12.8921" stroke="#00214E"/>
<path id="Path_11" d="M19.8496 12.998C20.5168 12.842 21.2044 12.794 21.8866 12.8556" stroke="#00214E"/>
<path id="Path_12" d="M15.2339 19.3298C15.2659 19.278 15.318 19.2422 15.3775 19.231C15.4369 19.2199 15.4983 19.2343 15.5467 19.2709C15.7895 19.4427 16.2331 19.8074 16.8635 19.9333C17.7227 20.1062 18.4674 19.7592 18.646 19.9827C18.7464 20.1086 18.6239 20.2615 18.3892 20.4533C17.8925 20.8273 17.2672 20.9838 16.6545 20.8874C15.8281 20.7309 15.207 19.7662 15.207 19.4239C15.2079 19.3907 15.2171 19.3583 15.2339 19.3298Z" fill="white"/>
</g>
<defs>
<linearGradient id="paint0_linear_774_3065" x1="0.964844" y1="35.2589" x2="27.403" y2="35.2589" gradientUnits="userSpaceOnUse">
<stop stop-color="#16243F"/>
<stop offset="1" stop-color="#6878B1"/>
</linearGradient>
</defs>
</svg>
