<svg width="30" height="34" viewBox="0 0 30 34" fill="none" xmlns="http://www.w3.org/2000/svg">
<g id="Artboards_Diversity_Avatars_by_Netguru-50">
<path id="Path" d="M19.1628 1.61072C17.751 1.14013 16.2381 0.75425 14.7463 0.922486C12.3779 1.19438 10.1234 2.08726 8.21102 3.51072C7.04279 4.38249 5.55808 5.78837 5.31338 7.31307C5.09455 8.67778 6.75573 9.69307 6.44161 10.9319C6.17455 11.9813 4.0322 11.7448 3.63573 12.9013C3.19926 14.186 5.57808 15.7154 5.12749 16.8637C4.71455 17.9154 1.77102 16.7072 1.65455 18.2037C1.49573 20.2354 5.00044 20.6978 4.7522 21.839C4.48044 23.086 0.587494 22.6201 0.311024 23.6954C0.0451415 24.7295 3.10161 27.0601 7.28632 28.2484C18.5146 31.4366 29.9922 25.3237 29.6675 23.7672C29.4957 22.9307 25.9898 22.5531 25.871 21.4554C25.7769 20.5813 28.0934 19.8472 27.9357 19.0637C27.7722 18.2484 25.1522 18.5001 24.9322 17.6295C24.6851 16.6495 27.7769 15.4766 27.5604 14.2813C27.3863 13.3237 25.2899 13.4343 25.0263 12.3672C24.7122 11.099 26.6475 10.1013 26.331 9.07307C25.9922 7.97425 23.444 8.40954 22.8675 7.00955C22.531 6.19307 23.4781 5.52484 23.431 4.61778C23.3863 3.7719 22.4734 2.72837 19.1628 1.61072Z" fill="url(#paint0_linear_774_2953)"/>
<path id="Path_2" d="M29.3967 28.6695C21.5322 34.725 10.5627 34.6766 2.75195 28.5519L8.47666 25.8684C8.65189 25.7855 8.82271 25.6936 8.98842 25.5931L9.12019 25.5107C9.16725 25.4813 9.21313 25.4507 9.25901 25.419C9.9814 24.9204 10.5733 24.2554 10.9849 23.4801C11.4555 22.5919 11.6108 21.6107 11.6178 20.6107C11.6178 19.9378 11.5814 19.2648 11.5743 18.5907C11.5696 18.2182 11.5657 17.8452 11.5625 17.4719L11.7978 17.5895L12.4096 17.906L15.9731 18.5119L19.6343 19.1354L19.7449 22.9001L19.8002 24.7672L21.1496 25.3166L22.2084 25.7448L29.3967 28.6695Z" fill="#E18477"/>
<path id="Path_3" d="M19.742 22.899C18.5584 23.1091 17.3409 23.014 16.2043 22.6225C13.669 21.7695 11.9561 19.7154 11.7949 17.5978L12.4067 17.9143L15.9702 18.5201L19.6314 19.1437L19.742 22.899Z" fill="#A76962"/>
<circle id="Oval" cx="8.15039" cy="13.7072" r="2" fill="#E18477"/>
<ellipse id="Oval_2" cx="8.85742" cy="13.4719" rx="2" ry="2" fill="#A76962"/>
<path id="Path_4" d="M22.6102 10.5554C24.0761 15.6319 21.2232 21.526 19.0502 21.7684C13.7985 22.3566 10.0691 19.6754 8.60318 14.599C7.1373 9.52249 9.08554 4.50366 12.9561 3.38719C16.8267 2.27072 21.1455 5.48013 22.6102 10.5554Z" fill="#E18477"/>
<path id="Path_5" d="M19.2129 9.93543C20.0452 9.51143 21.0077 9.42056 21.9047 9.68131" stroke="#00214E"/>
<path id="Path_6" d="M12.7285 10.3707C13.8744 9.78575 15.2216 9.74261 16.4026 10.2531" stroke="#00214E"/>
<path id="Path_7" d="M29.3967 28.6695C21.5322 34.725 10.5627 34.6766 2.75195 28.5519L8.47666 25.8684C8.74929 25.7402 9.01095 25.5899 9.25901 25.419C9.33431 25.3672 9.4096 25.3131 9.48137 25.2566C10.1045 24.7795 10.6174 24.1736 10.9849 23.4801C11.2628 22.9476 11.4475 22.3715 11.5308 21.7766C11.6139 21.8571 11.701 21.9333 11.792 22.0048C12.5133 22.5383 13.2962 22.983 14.1237 23.3295C14.5255 23.4971 14.9363 23.6421 15.3543 23.7637C16.6136 24.1309 17.9284 24.2699 19.2367 24.1743C19.4178 24.1601 19.6002 24.1425 19.7814 24.1295L19.799 24.7272V24.766L21.2225 25.3448L29.3967 28.6695Z" fill="#F2D4CF"/>
<path id="Path_8" d="M14.3359 13.4907C14.665 13.5119 14.9885 13.3987 15.2324 13.1769C15.4764 12.9551 15.6199 12.6438 15.6301 12.3143" stroke="#00214E"/>
<path id="Path_9" d="M19.4961 12.0578C19.5029 12.3673 19.6447 12.6583 19.8843 12.8543C20.122 13.0464 20.3863 13.2029 20.669 13.319" stroke="#00214E"/>
<path id="Path_10" d="M13.5059 17.0295C13.6519 16.7831 13.833 16.5592 14.0435 16.3648C14.4752 15.9682 15.0171 15.7118 15.5976 15.6295" stroke="#00214E"/>
<path id="Path_11" d="M16.5312 7.67896H19.316" stroke="#00214E"/>
<path id="Path_12" d="M15.8516 8.59896H19.3163" stroke="#00214E"/>
<path id="Path_13" d="M14.8083 16.8837C14.8408 16.8322 14.8933 16.7967 14.9531 16.7855C15.013 16.7743 15.0747 16.7886 15.1236 16.8248C15.3683 16.9966 15.8154 17.3613 16.4507 17.4872C17.3165 17.6601 18.0671 17.3131 18.2471 17.5366C18.3483 17.6625 18.2248 17.8166 17.9883 18.0131C17.4877 18.3871 16.8575 18.5436 16.2401 18.4472C15.4071 18.2907 14.7813 17.326 14.7813 16.9837C14.7812 16.9485 14.7906 16.914 14.8083 16.8837Z" fill="white"/>
<path id="Path_14" d="M18.3752 3.13778C17.9105 2.69778 17.0905 2.56366 16.4928 2.4766C13.8587 2.09307 11.4175 3.10484 9.46814 4.84484C8.52696 5.68131 7.69167 6.66602 7.23284 7.83778C6.74343 9.10484 6.49167 11.7648 8.4352 11.6578C9.28696 11.6119 10.094 11.2401 10.8434 10.8625C12.9446 9.80366 14.9434 8.46131 16.5281 6.70719C16.9229 6.26323 17.2914 5.79655 17.6317 5.30955C18.0646 4.70249 19.1728 3.92837 18.3823 3.15307C18.3797 3.14808 18.3773 3.14298 18.3752 3.13778Z" fill="url(#paint1_linear_774_2953)"/>
<path id="Path_15" d="M18.407 11.4001C18.4399 11.8571 18.5187 12.3096 18.6423 12.7507C18.76 13.1401 18.9388 13.3825 19.1741 13.7178C19.2559 13.8281 19.3265 13.9463 19.3847 14.0707C19.6964 14.7684 19.2835 15.5437 18.4964 15.5437H18.0117" stroke="#00214E"/>
<path id="Path_16" d="M16.2907 14.6413C16.1145 14.7311 16.0304 14.9362 16.0927 15.1238C16.1551 15.3115 16.3452 15.4254 16.5401 15.3919" stroke="#00214E"/>
<path id="Path_17" d="M14.4805 11.4319C15.1981 11.4237 15.2193 12.5201 14.5017 12.5401H14.4699C13.7511 12.5472 13.7299 11.4507 14.4475 11.4307H14.4805V11.4319Z" fill="#00214E"/>
<path id="Path_18" d="M20.3889 11.2448C21.0559 11.2378 21.0759 12.2554 20.4089 12.2743H20.3748C19.7089 12.2813 19.6889 11.2637 20.3548 11.246H20.3842L20.3889 11.2448Z" fill="#00214E"/>
</g>
<defs>
<linearGradient id="paint0_linear_774_2953" x1="0.294553" y1="29.1556" x2="29.6734" y2="29.1556" gradientUnits="userSpaceOnUse">
<stop stop-color="#16243F"/>
<stop offset="1" stop-color="#6878B1"/>
</linearGradient>
<linearGradient id="paint1_linear_774_2953" x1="17.9708" y1="15.6908" x2="27.0821" y2="-0.997941" gradientUnits="userSpaceOnUse">
<stop stop-color="#16243F"/>
<stop offset="0.1" stop-color="#263454"/>
<stop offset="1" stop-color="#6878B1"/>
</linearGradient>
</defs>
</svg>
